# xmcd
#
# Track frame offsets:
# 150
# 27735
# 45632
# 61120
# 82148
# 105872
# 128103
# 151637
# 171751
# 191036
# 217221
# 243963
# 273007
# 298041
# 322572
#
# Disc length: 4746 seconds
#
# Revision: 0
# Processed by: cddbd v1.5.2PL0 Copyright (c) Steve Scherf et al.
# Submitted via: Audion 3.0.2 (http://www.panic.com/audion/)
#
DISCID=c812880f
DTITLE=Soul Coughing - Live in New York, NY 8/16/99
DYEAR=1900
DGENRE=
TTITLE0=Rolling 
TTITLE1=Collapse
TTITLE2=Idiot Kings 
TTITLE3=Bus to Beelzebub
TTITLE4=Blame
TTITLE5=True Dreams of Wichita
TTITLE6=St. Louise
TTITLE7=$300
TTITLE8=Circles
TTITLE9=Blue Eyed Devil
TTITLE10=Maybe I'll Come Down
TTITLE11=Miss the Girl
TTITLE12=Mr. Bitterness
TTITLE13=Super Bon Bon
TTITLE14=Screenwriter's Blues
EXTD=
EXTT0=
EXTT1=
EXTT2=
EXTT3=
EXTT4=
EXTT5=
EXTT6=
EXTT7=
EXTT8=
EXTT9=
EXTT10=
EXTT11=
EXTT12=
EXTT13=
EXTT14=
PLAYORDER=
